<?xml version="1.0" standalone="no"?>
<svg xmlns:xlink="http://www.w3.org/1999/xlink" id="wave" style="transform:rotate(180deg); transition: 0.3s" viewBox="0 0 1440 490" version="1.1" xmlns="http://www.w3.org/2000/svg"><defs><linearGradient id="sw-gradient-0" x1="0" x2="0" y1="1" y2="0"><stop stop-color="rgba(142, 45, 226, 1)" offset="0%"/><stop stop-color="rgba(74, 0, 224, 1)" offset="100%"/></linearGradient></defs><path style="transform:translate(0, 0px); opacity:1" fill="url(#sw-gradient-0)" d="M0,0L80,40.8C160,82,320,163,480,212.3C640,261,800,278,960,285.8C1120,294,1280,294,1440,318.5C1600,343,1760,392,1920,400.2C2080,408,2240,376,2400,302.2C2560,229,2720,114,2880,65.3C3040,16,3200,33,3360,98C3520,163,3680,278,3840,326.7C4000,376,4160,359,4320,318.5C4480,278,4640,212,4800,163.3C4960,114,5120,82,5280,114.3C5440,147,5600,245,5760,294C5920,343,6080,343,6240,318.5C6400,294,6560,245,6720,204.2C6880,163,7040,131,7200,114.3C7360,98,7520,98,7680,106.2C7840,114,8000,131,8160,163.3C8320,196,8480,245,8640,269.5C8800,294,8960,294,9120,277.7C9280,261,9440,229,9600,204.2C9760,180,9920,163,10080,138.8C10240,114,10400,82,10560,106.2C10720,131,10880,212,11040,269.5C11200,327,11360,359,11440,375.7L11520,392L11520,490L11440,490C11360,490,11200,490,11040,490C10880,490,10720,490,10560,490C10400,490,10240,490,10080,490C9920,490,9760,490,9600,490C9440,490,9280,490,9120,490C8960,490,8800,490,8640,490C8480,490,8320,490,8160,490C8000,490,7840,490,7680,490C7520,490,7360,490,7200,490C7040,490,6880,490,6720,490C6560,490,6400,490,6240,490C6080,490,5920,490,5760,490C5600,490,5440,490,5280,490C5120,490,4960,490,4800,490C4640,490,4480,490,4320,490C4160,490,4000,490,3840,490C3680,490,3520,490,3360,490C3200,490,3040,490,2880,490C2720,490,2560,490,2400,490C2240,490,2080,490,1920,490C1760,490,1600,490,1440,490C1280,490,1120,490,960,490C800,490,640,490,480,490C320,490,160,490,80,490L0,490Z"/></svg>